#!OML:ASF E:\Mandelcareful walks\Project 1\Capture day 1\Session 1\Subject1.ASF
:FULLY-SPECIFIED
:DEGREES
933
root 35.824 13.8383 -2.08113 555.386 6.17942 894.788
lowerback 37.5179 0.390437 -5.70551
upperback 6.49815 0.143708 -4.13546
thorax -11.2111 1.20114 -1.71448
lowerneck -26.7568 16.356 6.53146
upperneck 17.8879 24.7155 -16.5879
head 13.507 9.27368 -2.1088
rclavicle 4.17448e-015 -2.62396e-014
rhumerus -29.8353 27.0232 -88.8016
rradius 48.8893
rwrist -72.7569
rhand 5.91749 -38.6023
rfingers 7.12502
rthumb 31.2447 -785.957
lclavicle 4.17448e-015 -2.62396e-014
lhumerus 129.221 -78.2663 -32.7574
lradius 53.3988
lwrist 0.0834733
lhand -23.3225 -18.4228
lfingers 7.12502
lthumb 3.13162 11.5339
rfemur -49.6372 -20.6438 0.0661001
rtibia 73.7471
rfoot -25.0597 -20.4632
rtoes -16.6672
lfemur -68.1978 18.7096 -21.1756
ltibia 71.6367
lfoot -14.2349 5.56007
ltoes -8.00281
934
root 35.7239 13.8558 -2.18027 555.242 5.48136 895.476
lowerback 37.468 0.294925 -5.77631
upperback 6.53831 0.0261281 -4.07039
thorax -11.1431 1.15512 -1.55703
lowerneck -28.3424 15.073 5.55929
upperneck 20.3113 23.2308 -15.2369
head 14.264 8.44103 -1.79422
rclavicle -2.3059e-014 -4.05521e-014
rhumerus -29.0488 26.952 -89.0841
rradius 46.9497
rwrist -71.9119
rhand 6.00874 -38.8017
rfingers 7.12502
rthumb 31.3317 -786.139
lclavicle -2.3059e-014 -4.05521e-014
lhumerus 128.481 -78.7656 -31.6817
lradius 52.6034
lwrist 0.109484
lhand -21.874 -17.6596
lfingers 7.12502
lthumb 4.53042 12.2719
rfemur -48.0692 -20.6253 0.122202
rtibia 72.8064
rfoot -24.9602 -20.5956
rtoes -16.706
lfemur -67.8112 18.0191 -20.5855
ltibia 72.0974
lfoot -14.8919 5.46801
ltoes -8.04351
935
root 35.6244 13.8775 -2.2725 555.33 4.52973 896.275
lowerback 37.3048 0.133029 -5.61389
upperback 6.55692 -0.0925313 -3.94183
thorax -11.0671 1.09246 -1.44865
lowerneck -29.855 14.1193 5.27769
upperneck 22.7323 22.1695 -14.6446
head 15.3586 7.73471 -1.75376
rclavicle 7.15625e-015 -2.22639e-014
rhumerus -28.4265 26.9352 -89.2474
rradius 45.361
rwrist -71.4141
rhand 5.83589 -39.14
rfingers 7.12502
rthumb 31.1669 -786.51
lclavicle 7.15625e-015 -2.22639e-014
lhumerus 128.475 -79.0891 -31.3208
lradius 51.9156
lwrist 0.0978358
lhand -20.6081 -16.2981
lfingers 7.12502
lthumb 5.75271 13.6038
rfemur -46.6695 -20.7677 0.472327
rtibia 71.7692
rfoot -24.7671 -21.0597
rtoes -17.3127
lfemur -67.7176 17.0038 -19.8224
ltibia 72.5172
lfoot -15.4472 5.42128
ltoes -7.67622
936
root 35.5297 13.8974 -2.35274 555.57 3.58529 896.861
lowerback 37.1055 0.0217828 -5.60935
upperback 6.53816 -0.220256 -3.85592
thorax -11.015 1.02814 -1.30092
lowerneck -31.0483 13.1622 4.53377
upperneck 24.7116 21.1476 -13.8978
head 16.1707 7.09579 -1.60316
rclavicle -5.1684e-015 -5.00937e-014
rhumerus -27.8493 26.7326 -89.3945
rradius 43.9171
rwrist -70.7593
rhand 6.06401 -39.3427
rfingers 7.12502
rthumb 31.3843 -786.67
lclavicle -5.1684e-015 -5.00937e-014
lhumerus 128.634 -79.3254 -31.1952
lradius 51.3084
lwrist -0.00559473
lhand -19.4361 -15.2863
lfingers 7.12502
lthumb 6.88423 14.5817
rfemur -45.5912 -21.0348 0.753672
rtibia 70.8207
rfoot -24.673 -21.6188
rtoes -17.62
lfemur -67.9073 16.0646 -19.3744
ltibia 72.8851
lfoot -15.7572 5.27472
ltoes -7.50743
937
root 35.4158 13.9214 -2.47039 555.542 3.32604 897.488
lowerback 36.8865 0.139806 -5.78938
upperback 6.59701 -0.106378 -3.82693
thorax -10.863 1.0838 -1.21547
lowerneck -31.8808 12.2965 3.77577
upperneck 26.3197 20.3004 -13.4871
head 16.8651 6.52182 -1.55766
rclavicle -1.59028e-014 -3.53837e-014
rhumerus -27.2679 26.2594 -89.5203
rradius 42.3715
rwrist -69.7759
rhand 6.96799 -39.3177
rfingers 7.12502
rthumb 32.2452 -786.474
lclavicle -1.59028e-014 -3.53837e-014
lhumerus 127.665 -79.9218 -29.7794
lradius 50.4666
lwrist -0.292026
lhand -18.2423 -15.0569
lfingers 7.12502
lthumb 8.03651 14.7704
rfemur -44.3113 -20.7679 0.802015
rtibia 69.7117
rfoot -24.5271 -22.005
rtoes -17.474
lfemur -67.5536 15.5106 -18.9408
ltibia 73.2715
lfoot -16.3553 5.32907
ltoes -7.83193
938
root 35.3305 13.9508 -2.54801 555.724 2.52853 898.094
lowerback 36.8854 0.202413 -5.97308
upperback 6.54813 -0.0894991 -3.66783
thorax -10.9099 1.09336 -0.956133
lowerneck -32.6157 11.5825 3.30285
upperneck 27.6437 19.5785 -13.3102
head 17.5277 6.02275 -1.62516
rclavicle -1.59028e-014 -2.3059e-014
rhumerus -26.9056 25.7736 -89.6797
rradius 41.1918
rwrist -69.2311
rhand 7.03376 -39.3781
rfingers 7.12502
rthumb 32.3078 -786.522
lclavicle -1.59028e-014 -2.3059e-014
lhumerus 127.795 -80.2551 -29.33
lradius 49.6035
lwrist -0.48411
lhand -17.0063 -14.58
lfingers 7.12502
lthumb 9.22926 15.198
rfemur -43.2159 -20.5384 1.18195
rtibia 68.6664
rfoot -24.3407 -22.8792
rtoes -17.0399
lfemur -67.575 14.6464 -18.3412
ltibia 73.5172
lfoot -16.7333 5.19176
ltoes -7.50765
939
root 35.2403 13.9942 -2.63002 555.956 1.80302 898.604
lowerback 36.7817 0.126392 -5.8069
upperback 6.56289 -0.115309 -3.9093
thorax -10.8636 1.08716 -1.29131
lowerneck -33.1838 11.0262 3.10108
upperneck 28.6072 18.8831 -13.0622
head 18.0121 5.63634 -1.69367
rclavicle -2.06736e-014 -2.3059e-014
rhumerus -26.6127 24.8821 -90.2262
rradius 40.239
rwrist -68.7852
rhand 6.50859 -39.6605
rfingers 7.12502
rthumb 31.8078 -786.905
lclavicle -2.06736e-014 -2.3059e-014
lhumerus 129.519 -80.1227 -30.9209
lradius 49.0824
lwrist -0.612792
lhand -15.7087 -13.7683
lfingers 7.12502
lthumb 10.4812 15.9504
rfemur -42.1271 -20.2596 1.43695
rtibia 67.4825
rfoot -24.0783 -23.5542
rtoes -16.4243
lfemur -67.5355 13.5668 -17.6946
ltibia 73.6811
lfoot -17.2753 5.03012
ltoes -5.21886
940
root 35.1433 14.0436 -2.72568 556.158 1.31287 899.01
lowerback 36.6597 0.209619 -5.97406
upperback 6.59983 -0.0471187 -4.01925
thorax -10.7726 1.13059 -1.34761
lowerneck -33.4713 10.7333 2.91435
upperneck 29.1497 18.6073 -13.0902
head 18.3243 5.42496 -1.77059
rclavicle -3.97569e-014 -5.725e-014
rhumerus -26.268 23.9353 -90.5262
rradius 39.1857
rwrist -68.1217
rhand 6.57217 -39.9424
rfingers 7.12502
rthumb 31.8684 -787.175
lclavicle -3.97569e-014 -5.725e-014
lhumerus 129.889 -80.0754 -31.0719
lradius 48.6706
lwrist -0.748912
lhand -14.528 -13.5925
lfingers 7.12502
lthumb 11.62 16.0653
rfemur -41.0319 -19.8822 1.48286
rtibia 66.2563
rfoot -24.1354 -23.8331
rtoes -15.3737
lfemur -67.3051 12.5419 -17.1396
ltibia 73.7642
lfoot -17.9531 4.88852
ltoes -2.59103
941
root 35.048 14.0893 -2.82675 556.424 0.823907 899.405
lowerback 36.5498 0.314798 -6.25494
upperback 6.58061 -0.0103293 -4.04258
thorax -10.7445 1.15536 -1.23927
lowerneck -33.3949 10.6615 2.81158
upperneck 29.2901 18.6168 -13.2862
head 18.4136 5.36544 -1.85278
rclavicle 3.89618e-014 1.05753e-013
rhumerus -26.1255 23.2042 -90.8354
rradius 38.2338
rwrist -67.354
rhand 6.79365 -40.0905
rfingers 7.12502
rthumb 32.0793 -787.281
lclavicle 3.89618e-014 1.05753e-013
lhumerus 129.883 -80.0367 -30.879
lradius 48.3088
lwrist -0.815064
lhand -13.3315 -13.5234
lfingers 7.12502
lthumb 12.7737 16.0659
rfemur -39.9941 -19.5085 1.54482
rtibia 65.0112
rfoot -24.2726 -24.0641
rtoes -14.6735
lfemur -67.0812 11.3766 -16.6125
ltibia 73.787
lfoot -18.6144 5.16587
ltoes -1.61649
942
root 34.9613 14.1325 -2.92386 556.81 0.33331 899.719
lowerback 36.4114 0.487206 -6.57136
upperback 6.52304 0.0878881 -4.12317
thorax -10.7498 1.20822 -1.19919
lowerneck -33.3569 10.6085 2.72225
upperneck 29.4028 18.5743 -13.2471
head 18.4444 5.33675 -1.83855
rclavicle -2.46493e-014 -4.37326e-014
rhumerus -26.117 22.1924 -91.1817
rradius 37.4171
rwrist -66.4038
rhand 6.9157 -40.0466
rfingers 7.12502
rthumb 32.1955 -787.213
lclavicle -2.46493e-014 -4.37326e-014
lhumerus 130.854 -79.9327 -31.577
lradius 47.8466
lwrist -1.0098
lhand -12.1242 -13.2186
lfingers 7.12502
lthumb 13.9374 16.2943
rfemur -39.1293 -19.1324 1.64177
rtibia 63.8047
rfoot -24.3503 -24.1962
rtoes -14.0919
lfemur -67.0062 10.4111 -16.3005
ltibia 73.757
lfoot -19.1236 5.40459
ltoes -1.48353
943
root 34.8799 14.1771 -3.01981 557.257 -0.158484 900.036
lowerback 36.2587 3.32531 -4.87392
upperback 6.73738 -0.569573 -3.99212
thorax -10.632 -1.10197 -1.31229
lowerneck -33.4441 10.5329 2.73224
upperneck 29.5606 18.4348 -13.1155
head 18.5102 5.29279 -1.82078
rclavicle -2.06736e-014 -3.97569e-015
rhumerus -26.0104 20.8256 -91.4194
rradius 36.6012
rwrist -65.4043
rhand 6.9638 -40.0615
rfingers 7.12502
rthumb 32.2412 -787.219
lclavicle -2.06736e-014 -3.97569e-015
lhumerus 132.523 -79.7588 -32.9239
lradius 47.2735
lwrist -1.25336
lhand -10.8892 -13.0281
lfingers 7.12502
lthumb 15.1272 16.3991
rfemur -38.4007 -18.8479 1.86798
rtibia 62.6409
rfoot -24.2899 -24.3337
rtoes -13.41
lfemur -67.0321 9.72393 -16.0953
ltibia 73.6969
lfoot -19.5353 5.44241
ltoes -1.42335
